<svg width="600" height="600" viewBox="0 0 600 600" fill="none" xmlns="http://www.w3.org/2000/svg">
<rect width="600" height="600" fill="white"/>
<path d="M72.1719 361.941C70.1523 361.941 68.5485 361.407 67.3605 360.337C66.2913 359.268 65.7566 358.021 65.7566 356.595C65.7566 355.169 66.2913 353.922 67.3605 352.853C68.5485 351.784 70.1523 351.249 72.1719 351.249H110.307C112.327 351.249 113.871 351.784 114.94 352.853C116.128 353.922 116.722 355.169 116.722 356.595C116.722 358.021 116.128 359.268 114.94 360.337C113.871 361.407 112.327 361.941 110.307 361.941H72.1719ZM72.1719 339.131C70.1523 339.131 68.5485 338.597 67.3605 337.527C66.2913 336.458 65.7566 335.211 65.7566 333.785C65.7566 332.36 66.2913 331.112 67.3605 330.043C68.5485 328.974 70.1523 328.439 72.1719 328.439H110.307C112.327 328.439 113.871 328.974 114.94 330.043C116.128 331.112 116.722 332.36 116.722 333.785C116.722 335.211 116.128 336.458 114.94 337.527C113.871 338.597 112.327 339.131 110.307 339.131H72.1719ZM72.1719 316.321C70.1523 316.321 68.5485 315.787 67.3605 314.718C66.2913 313.648 65.7566 312.401 65.7566 310.975C65.7566 309.55 66.2913 308.302 67.3605 307.233C68.5485 306.164 70.1523 305.629 72.1719 305.629H110.307C112.327 305.629 113.871 306.164 114.94 307.233C116.128 308.302 116.722 309.55 116.722 310.975C116.722 312.401 116.128 313.648 114.94 314.718C113.871 315.787 112.327 316.321 110.307 316.321H72.1719ZM72.1719 293.511C70.1523 293.511 68.5485 292.977 67.3605 291.908C66.2913 290.838 65.7566 289.591 65.7566 288.165C65.7566 286.74 66.2913 285.492 67.3605 284.423C68.5485 283.354 70.1523 282.819 72.1719 282.819H110.307C112.327 282.819 113.871 283.354 114.94 284.423C116.128 285.492 116.722 286.74 116.722 288.165C116.722 289.591 116.128 290.838 114.94 291.908C113.871 292.977 112.327 293.511 110.307 293.511H72.1719ZM72.1719 270.702C70.1523 270.702 68.5485 270.167 67.3605 269.098C66.2913 268.029 65.7566 266.781 65.7566 265.355C65.7566 263.93 66.2913 262.682 67.3605 261.613C68.5485 260.544 70.1523 260.009 72.1719 260.009H110.307C112.327 260.009 113.871 260.544 114.94 261.613C116.128 262.682 116.722 263.93 116.722 265.355C116.722 266.781 116.128 268.029 114.94 269.098C113.871 270.167 112.327 270.702 110.307 270.702H72.1719ZM72.1719 247.892C70.1523 247.892 68.5485 247.357 67.3605 246.288C66.2913 245.219 65.7566 243.971 65.7566 242.546C65.7566 241.12 66.2913 239.873 67.3605 238.803C68.5485 237.734 70.1523 237.2 72.1719 237.2H110.307C112.327 237.2 113.871 237.734 114.94 238.803C116.128 239.873 116.722 241.12 116.722 242.546C116.722 243.971 116.128 245.219 114.94 246.288C113.871 247.357 112.327 247.892 110.307 247.892H72.1719ZM26.5521 225.082C24.5325 225.082 22.9287 224.547 21.7407 223.478C20.6715 222.409 20.1369 221.161 20.1369 219.736C20.1369 218.31 20.6715 217.063 21.7407 215.993C22.9287 214.924 24.5325 214.39 26.5521 214.39H155.927C157.947 214.39 159.491 214.924 160.56 215.993C161.748 217.063 162.342 218.31 162.342 219.736C162.342 221.161 161.748 222.409 160.56 223.478C159.491 224.547 157.947 225.082 155.927 225.082H26.5521ZM250.089 361.941C248.069 361.941 246.466 361.407 245.278 360.337C244.208 359.268 243.674 358.021 243.674 356.595C243.674 355.169 244.208 353.922 245.278 352.853C246.466 351.784 248.069 351.249 250.089 351.249H333.844C335.864 351.249 337.408 351.784 338.477 352.853C339.665 353.922 340.259 355.169 340.259 356.595C340.259 358.021 339.665 359.268 338.477 360.337C337.408 361.407 335.864 361.941 333.844 361.941H250.089ZM227.279 339.131C225.26 339.131 223.656 338.597 222.468 337.527C221.399 336.458 220.864 335.211 220.864 333.785C220.864 332.36 221.399 331.112 222.468 330.043C223.656 328.974 225.26 328.439 227.279 328.439H265.414C267.434 328.439 268.979 328.974 270.048 330.043C271.236 331.112 271.83 332.36 271.83 333.785C271.83 335.211 271.236 336.458 270.048 337.527C268.979 338.597 267.434 339.131 265.414 339.131H227.279ZM318.519 339.131C316.499 339.131 314.895 338.597 313.707 337.527C312.638 336.458 312.103 335.211 312.103 333.785C312.103 332.36 312.638 331.112 313.707 330.043C314.895 328.974 316.499 328.439 318.519 328.439H356.654C358.674 328.439 360.218 328.974 361.287 330.043C362.475 331.112 363.069 332.36 363.069 333.785C363.069 335.211 362.475 336.458 361.287 337.527C360.218 338.597 358.674 339.131 356.654 339.131H318.519ZM227.279 316.321C225.26 316.321 223.656 315.787 222.468 314.718C221.399 313.648 220.864 312.401 220.864 310.975C220.864 309.55 221.399 308.302 222.468 307.233C223.656 306.164 225.26 305.629 227.279 305.629H265.414C267.434 305.629 268.979 306.164 270.048 307.233C271.236 308.302 271.83 309.55 271.83 310.975C271.83 312.401 271.236 313.648 270.048 314.718C268.979 315.787 267.434 316.321 265.414 316.321H227.279ZM227.279 293.511C225.26 293.511 223.656 292.977 222.468 291.908C221.399 290.838 220.864 289.591 220.864 288.165C220.864 286.74 221.399 285.492 222.468 284.423C223.656 283.354 225.26 282.819 227.279 282.819H265.414C267.434 282.819 268.979 283.354 270.048 284.423C271.236 285.492 271.83 286.74 271.83 288.165C271.83 289.591 271.236 290.838 270.048 291.908C268.979 292.977 267.434 293.511 265.414 293.511H227.279ZM227.279 270.702C225.26 270.702 223.656 270.167 222.468 269.098C221.399 268.029 220.864 266.781 220.864 265.355C220.864 263.93 221.399 262.682 222.468 261.613C223.656 260.544 225.26 260.009 227.279 260.009H265.414C267.434 260.009 268.979 260.544 270.048 261.613C271.236 262.682 271.83 263.93 271.83 265.355C271.83 266.781 271.236 268.029 270.048 269.098C268.979 270.167 267.434 270.702 265.414 270.702H227.279ZM227.279 247.892C225.26 247.892 223.656 247.357 222.468 246.288C221.399 245.219 220.864 243.971 220.864 242.546C220.864 241.12 221.399 239.873 222.468 238.803C223.656 237.734 225.26 237.2 227.279 237.2H265.414C267.434 237.2 268.979 237.734 270.048 238.803C271.236 239.873 271.83 241.12 271.83 242.546C271.83 243.971 271.236 245.219 270.048 246.288C268.979 247.357 267.434 247.892 265.414 247.892H227.279ZM318.519 247.892C316.499 247.892 314.895 247.357 313.707 246.288C312.638 245.219 312.103 243.971 312.103 242.546C312.103 241.12 312.638 239.873 313.707 238.803C314.895 237.734 316.499 237.2 318.519 237.2H356.654C358.674 237.2 360.218 237.734 361.287 238.803C362.475 239.873 363.069 241.12 363.069 242.546C363.069 243.971 362.475 245.219 361.287 246.288C360.218 247.357 358.674 247.892 356.654 247.892H318.519ZM250.089 225.082C248.069 225.082 246.466 224.547 245.278 223.478C244.208 222.409 243.674 221.161 243.674 219.736C243.674 218.31 244.208 217.063 245.278 215.993C246.466 214.924 248.069 214.39 250.089 214.39H333.844C335.864 214.39 337.408 214.924 338.477 215.993C339.665 217.063 340.259 218.31 340.259 219.736C340.259 221.161 339.665 222.409 338.477 223.478C337.408 224.547 335.864 225.082 333.844 225.082H250.089ZM450.816 361.941C448.797 361.941 447.193 361.407 446.005 360.337C444.935 359.268 444.401 358.021 444.401 356.595C444.401 355.169 444.935 353.922 446.005 352.853C447.193 351.784 448.797 351.249 450.816 351.249H534.571C536.591 351.249 538.135 351.784 539.204 352.853C540.392 353.922 540.986 355.169 540.986 356.595C540.986 358.021 540.392 359.268 539.204 360.337C538.135 361.407 536.591 361.941 534.571 361.941H450.816ZM428.006 339.131C425.987 339.131 424.383 338.597 423.195 337.527C422.126 336.458 421.591 335.211 421.591 333.785C421.591 332.36 422.126 331.112 423.195 330.043C424.383 328.974 425.987 328.439 428.006 328.439H466.142C468.161 328.439 469.706 328.974 470.775 330.043C471.963 331.112 472.557 332.36 472.557 333.785C472.557 335.211 471.963 336.458 470.775 337.527C469.706 338.597 468.161 339.131 466.142 339.131H428.006ZM519.246 339.131C517.226 339.131 515.622 338.597 514.434 337.527C513.365 336.458 512.831 335.211 512.831 333.785C512.831 332.36 513.365 331.112 514.434 330.043C515.622 328.974 517.226 328.439 519.246 328.439H557.381C559.401 328.439 560.945 328.974 562.014 330.043C563.202 331.112 563.796 332.36 563.796 333.785C563.796 335.211 563.202 336.458 562.014 337.527C560.945 338.597 559.401 339.131 557.381 339.131H519.246ZM428.006 316.321C425.987 316.321 424.383 315.787 423.195 314.718C422.126 313.648 421.591 312.401 421.591 310.975C421.591 309.55 422.126 308.302 423.195 307.233C424.383 306.164 425.987 305.629 428.006 305.629H466.142C468.161 305.629 469.706 306.164 470.775 307.233C471.963 308.302 472.557 309.55 472.557 310.975C472.557 312.401 471.963 313.648 470.775 314.718C469.706 315.787 468.161 316.321 466.142 316.321H428.006ZM428.006 293.511C425.987 293.511 424.383 292.977 423.195 291.908C422.126 290.838 421.591 289.591 421.591 288.165C421.591 286.74 422.126 285.492 423.195 284.423C424.383 283.354 425.987 282.819 428.006 282.819H466.142C468.161 282.819 469.706 283.354 470.775 284.423C471.963 285.492 472.557 286.74 472.557 288.165C472.557 289.591 471.963 290.838 470.775 291.908C469.706 292.977 468.161 293.511 466.142 293.511H428.006ZM428.006 270.702C425.987 270.702 424.383 270.167 423.195 269.098C422.126 268.029 421.591 266.781 421.591 265.355C421.591 263.93 422.126 262.682 423.195 261.613C424.383 260.544 425.987 260.009 428.006 260.009H466.142C468.161 260.009 469.706 260.544 470.775 261.613C471.963 262.682 472.557 263.93 472.557 265.355C472.557 266.781 471.963 268.029 470.775 269.098C469.706 270.167 468.161 270.702 466.142 270.702H428.006ZM428.006 247.892C425.987 247.892 424.383 247.357 423.195 246.288C422.126 245.219 421.591 243.971 421.591 242.546C421.591 241.12 422.126 239.873 423.195 238.803C424.383 237.734 425.987 237.2 428.006 237.2H466.142C468.161 237.2 469.706 237.734 470.775 238.803C471.963 239.873 472.557 241.12 472.557 242.546C472.557 243.971 471.963 245.219 470.775 246.288C469.706 247.357 468.161 247.892 466.142 247.892H428.006ZM519.246 247.892C517.226 247.892 515.622 247.357 514.434 246.288C513.365 245.219 512.831 243.971 512.831 242.546C512.831 241.12 513.365 239.873 514.434 238.803C515.622 237.734 517.226 237.2 519.246 237.2H557.381C559.401 237.2 560.945 237.734 562.014 238.803C563.202 239.873 563.796 241.12 563.796 242.546C563.796 243.971 563.202 245.219 562.014 246.288C560.945 247.357 559.401 247.892 557.381 247.892H519.246ZM450.816 225.082C448.797 225.082 447.193 224.547 446.005 223.478C444.935 222.409 444.401 221.161 444.401 219.736C444.401 218.31 444.935 217.063 446.005 215.993C447.193 214.924 448.797 214.39 450.816 214.39H534.571C536.591 214.39 538.135 214.924 539.204 215.993C540.392 217.063 540.986 218.31 540.986 219.736C540.986 221.161 540.392 222.409 539.204 223.478C538.135 224.547 536.591 225.082 534.571 225.082H450.816Z" fill="black"/>
</svg>
