<svg width="600" height="183" viewBox="0 0 600 183" fill="none" xmlns="http://www.w3.org/2000/svg">
<g clip-path="url(#clip0_1281_38)">
<path d="M371.157 76.9845C370.152 76.9845 369.353 76.7184 368.762 76.1863C368.23 75.6541 367.964 75.0333 367.964 74.3237C367.964 73.6142 368.23 72.9934 368.762 72.4612C369.353 71.9291 370.152 71.663 371.157 71.663H412.842C413.847 71.663 414.616 71.9291 415.148 72.4612C415.739 72.9934 416.035 73.6142 416.035 74.3237C416.035 75.0333 415.739 75.6541 415.148 76.1863C414.616 76.7184 413.847 76.9845 412.842 76.9845H371.157ZM359.804 65.6319C358.799 65.6319 358.001 65.3659 357.409 64.8337C356.877 64.3016 356.611 63.6807 356.611 62.9712C356.611 62.2617 356.877 61.6408 357.409 61.1087C358.001 60.5765 358.799 60.3104 359.804 60.3104H378.784C379.789 60.3104 380.558 60.5765 381.09 61.1087C381.681 61.6408 381.977 62.2617 381.977 62.9712C381.977 63.6807 381.681 64.3016 381.09 64.8337C380.558 65.3659 379.789 65.6319 378.784 65.6319H359.804ZM405.214 65.6319C404.209 65.6319 403.411 65.3659 402.82 64.8337C402.287 64.3016 402.021 63.6807 402.021 62.9712C402.021 62.2617 402.287 61.6408 402.82 61.1087C403.411 60.5765 404.209 60.3104 405.214 60.3104H424.194C425.199 60.3104 425.968 60.5765 426.5 61.1087C427.092 61.6408 427.387 62.2617 427.387 62.9712C427.387 63.6807 427.092 64.3016 426.5 64.8337C425.968 65.3659 425.199 65.6319 424.194 65.6319H405.214ZM359.804 54.2794C358.799 54.2794 358.001 54.0133 357.409 53.4812C356.877 52.949 356.611 52.3282 356.611 51.6187C356.611 50.9091 356.877 50.2883 357.409 49.7561C358.001 49.224 358.799 48.9579 359.804 48.9579H378.784C379.789 48.9579 380.558 49.224 381.09 49.7561C381.681 50.2883 381.977 50.9091 381.977 51.6187C381.977 52.3282 381.681 52.949 381.09 53.4812C380.558 54.0133 379.789 54.2794 378.784 54.2794H359.804ZM359.804 42.9269C358.799 42.9269 358.001 42.6608 357.409 42.1287C356.877 41.5965 356.611 40.9757 356.611 40.2661C356.611 39.5566 356.877 38.9358 357.409 38.4036C358.001 37.8715 358.799 37.6054 359.804 37.6054H378.784C379.789 37.6054 380.558 37.8715 381.09 38.4036C381.681 38.9358 381.977 39.5566 381.977 40.2661C381.977 40.9757 381.681 41.5965 381.09 42.1287C380.558 42.6608 379.789 42.9269 378.784 42.9269H359.804ZM359.804 31.5743C358.799 31.5743 358.001 31.3083 357.409 30.7761C356.877 30.244 356.611 29.6231 356.611 28.9136C356.611 28.2041 356.877 27.5832 357.409 27.0511C358.001 26.5189 358.799 26.2528 359.804 26.2528H378.784C379.789 26.2528 380.558 26.5189 381.09 27.0511C381.681 27.5832 381.977 28.2041 381.977 28.9136C381.977 29.6231 381.681 30.244 381.09 30.7761C380.558 31.3083 379.789 31.5743 378.784 31.5743H359.804ZM359.804 20.2218C358.799 20.2218 358.001 19.9557 357.409 19.4236C356.877 18.8914 356.611 18.2706 356.611 17.5611C356.611 16.8515 356.877 16.2307 357.409 15.6985C358.001 15.1664 358.799 14.9003 359.804 14.9003H378.784C379.789 14.9003 380.558 15.1664 381.09 15.6985C381.681 16.2307 381.977 16.8515 381.977 17.5611C381.977 18.2706 381.681 18.8914 381.09 19.4236C380.558 19.9557 379.789 20.2218 378.784 20.2218H359.804ZM405.214 20.2218C404.209 20.2218 403.411 19.9557 402.82 19.4236C402.287 18.8914 402.021 18.2706 402.021 17.5611C402.021 16.8515 402.287 16.2307 402.82 15.6985C403.411 15.1664 404.209 14.9003 405.214 14.9003H424.194C425.199 14.9003 425.968 15.1664 426.5 15.6985C427.092 16.2307 427.387 16.8515 427.387 17.5611C427.387 18.2706 427.092 18.8914 426.5 19.4236C425.968 19.9557 425.199 20.2218 424.194 20.2218H405.214ZM371.157 8.86928C370.152 8.86928 369.353 8.60321 368.762 8.07106C368.23 7.53891 367.964 6.91807 367.964 6.20853C367.964 5.499 368.23 4.87816 368.762 4.34601C369.353 3.81386 370.152 3.54778 371.157 3.54778H412.842C413.847 3.54778 414.616 3.81386 415.148 4.34601C415.739 4.87816 416.035 5.499 416.035 6.20853C416.035 6.91807 415.739 7.53891 415.148 8.07106C414.616 8.60321 413.847 8.86928 412.842 8.86928H371.157ZM450.624 76.9845C449.619 76.9845 448.821 76.7184 448.23 76.1863C447.698 75.6541 447.432 75.0333 447.432 74.3237C447.432 73.6142 447.698 72.9934 448.23 72.4612C448.821 71.9291 449.619 71.663 450.624 71.663H515.015C516.02 71.663 516.788 71.9291 517.321 72.4612C517.912 72.9934 518.207 73.6142 518.207 74.3237C518.207 75.0333 517.912 75.6541 517.321 76.1863C516.788 76.7184 516.02 76.9845 515.015 76.9845H450.624ZM450.624 65.6319C449.619 65.6319 448.821 65.3659 448.23 64.8337C447.698 64.3016 447.432 63.6807 447.432 62.9712C447.432 62.2617 447.698 61.6408 448.23 61.1087C448.821 60.5765 449.619 60.3104 450.624 60.3104H469.604C470.61 60.3104 471.378 60.5765 471.91 61.1087C472.502 61.6408 472.797 62.2617 472.797 62.9712C472.797 63.6807 472.502 64.3016 471.91 64.8337C471.378 65.3659 470.61 65.6319 469.604 65.6319H450.624ZM450.624 54.2794C449.619 54.2794 448.821 54.0133 448.23 53.4812C447.698 52.949 447.432 52.3282 447.432 51.6187C447.432 50.9091 447.698 50.2883 448.23 49.7561C448.821 49.224 449.619 48.9579 450.624 48.9579H469.604C470.61 48.9579 471.378 49.224 471.91 49.7561C472.502 50.2883 472.797 50.9091 472.797 51.6187C472.797 52.3282 472.502 52.949 471.91 53.4812C471.378 54.0133 470.61 54.2794 469.604 54.2794H450.624ZM450.624 42.9269C449.619 42.9269 448.821 42.6608 448.23 42.1287C447.698 41.5965 447.432 40.9757 447.432 40.2661C447.432 39.5566 447.698 38.9358 448.23 38.4036C448.821 37.8715 449.619 37.6054 450.624 37.6054H469.604C470.61 37.6054 471.378 37.8715 471.91 38.4036C472.502 38.9358 472.797 39.5566 472.797 40.2661C472.797 40.9757 472.502 41.5965 471.91 42.1287C471.378 42.6608 470.61 42.9269 469.604 42.9269H450.624ZM450.624 31.5743C449.619 31.5743 448.821 31.3083 448.23 30.7761C447.698 30.244 447.432 29.6231 447.432 28.9136C447.432 28.2041 447.698 27.5832 448.23 27.0511C448.821 26.5189 449.619 26.2528 450.624 26.2528H469.604C470.61 26.2528 471.378 26.5189 471.91 27.0511C472.502 27.5832 472.797 28.2041 472.797 28.9136C472.797 29.6231 472.502 30.244 471.91 30.7761C471.378 31.3083 470.61 31.5743 469.604 31.5743H450.624ZM450.624 20.2218C449.619 20.2218 448.821 19.9557 448.23 19.4236C447.698 18.8914 447.432 18.2706 447.432 17.5611C447.432 16.8515 447.698 16.2307 448.23 15.6985C448.821 15.1664 449.619 14.9003 450.624 14.9003H469.604C470.61 14.9003 471.378 15.1664 471.91 15.6985C472.502 16.2307 472.797 16.8515 472.797 17.5611C472.797 18.2706 472.502 18.8914 471.91 19.4236C471.378 19.9557 470.61 20.2218 469.604 20.2218H450.624ZM450.624 8.86928C449.619 8.86928 448.821 8.60321 448.23 8.07106C447.698 7.53891 447.432 6.91807 447.432 6.20853C447.432 5.499 447.698 4.87816 448.23 4.34601C448.821 3.81386 449.619 3.54778 450.624 3.54778H469.604C470.61 3.54778 471.378 3.81386 471.91 4.34601C472.502 4.87816 472.797 5.499 472.797 6.20853C472.797 6.91807 472.502 7.53891 471.91 8.07106C471.378 8.60321 470.61 8.86928 469.604 8.86928H450.624ZM552.797 76.9845C551.792 76.9845 550.994 76.7184 550.403 76.1863C549.87 75.6541 549.604 75.0333 549.604 74.3237C549.604 73.6142 549.87 72.9934 550.403 72.4612C550.994 71.9291 551.792 71.663 552.797 71.663H594.482C595.487 71.663 596.256 71.9291 596.788 72.4612C597.38 72.9934 597.675 73.6142 597.675 74.3237C597.675 75.0333 597.38 75.6541 596.788 76.1863C596.256 76.7184 595.487 76.9845 594.482 76.9845H552.797ZM564.15 65.6319C563.145 65.6319 562.346 65.3659 561.755 64.8337C561.223 64.3016 560.957 63.6807 560.957 62.9712C560.957 62.2617 561.223 61.6408 561.755 61.1087C562.346 60.5765 563.145 60.3104 564.15 60.3104H583.13C584.135 60.3104 584.904 60.5765 585.436 61.1087C586.027 61.6408 586.323 62.2617 586.323 62.9712C586.323 63.6807 586.027 64.3016 585.436 64.8337C584.904 65.3659 584.135 65.6319 583.13 65.6319H564.15ZM564.15 54.2794C563.145 54.2794 562.346 54.0133 561.755 53.4812C561.223 52.949 560.957 52.3282 560.957 51.6187C560.957 50.9091 561.223 50.2883 561.755 49.7561C562.346 49.224 563.145 48.9579 564.15 48.9579H583.13C584.135 48.9579 584.904 49.224 585.436 49.7561C586.027 50.2883 586.323 50.9091 586.323 51.6187C586.323 52.3282 586.027 52.949 585.436 53.4812C584.904 54.0133 584.135 54.2794 583.13 54.2794H564.15ZM564.15 42.9269C563.145 42.9269 562.346 42.6608 561.755 42.1287C561.223 41.5965 560.957 40.9757 560.957 40.2661C560.957 39.5566 561.223 38.9358 561.755 38.4036C562.346 37.8715 563.145 37.6054 564.15 37.6054H583.13C584.135 37.6054 584.904 37.8715 585.436 38.4036C586.027 38.9358 586.323 39.5566 586.323 40.2661C586.323 40.9757 586.027 41.5965 585.436 42.1287C584.904 42.6608 584.135 42.9269 583.13 42.9269H564.15ZM564.15 31.5743C563.145 31.5743 562.346 31.3083 561.755 30.7761C561.223 30.244 560.957 29.6231 560.957 28.9136C560.957 28.2041 561.223 27.5832 561.755 27.0511C562.346 26.5189 563.145 26.2528 564.15 26.2528H583.13C584.135 26.2528 584.904 26.5189 585.436 27.0511C586.027 27.5832 586.323 28.2041 586.323 28.9136C586.323 29.6231 586.027 30.244 585.436 30.7761C584.904 31.3083 584.135 31.5743 583.13 31.5743H564.15ZM564.15 20.2218C563.145 20.2218 562.346 19.9557 561.755 19.4236C561.223 18.8914 560.957 18.2706 560.957 17.5611C560.957 16.8515 561.223 16.2307 561.755 15.6985C562.346 15.1664 563.145 14.9003 564.15 14.9003H583.13C584.135 14.9003 584.904 15.1664 585.436 15.6985C586.027 16.2307 586.323 16.8515 586.323 17.5611C586.323 18.2706 586.027 18.8914 585.436 19.4236C584.904 19.9557 584.135 20.2218 583.13 20.2218H564.15ZM552.797 8.86928C551.792 8.86928 550.994 8.60321 550.403 8.07106C549.87 7.53891 549.604 6.91807 549.604 6.20853C549.604 5.499 549.87 4.87816 550.403 4.34601C550.994 3.81386 551.792 3.54778 552.797 3.54778H594.482C595.487 3.54778 596.256 3.81386 596.788 4.34601C597.38 4.87816 597.675 5.499 597.675 6.20853C597.675 6.91807 597.38 7.53891 596.788 8.07106C596.256 8.60321 595.487 8.86928 594.482 8.86928H552.797Z" fill="black"/>
<path d="M27.4296 76.9845C26.4244 76.9845 25.6262 76.7184 25.0349 76.1863C24.5028 75.6541 24.2367 75.0333 24.2367 74.3237C24.2367 73.6142 24.5028 72.9934 25.0349 72.4612C25.6262 71.9291 26.4244 71.663 27.4296 71.663H46.4096C47.4148 71.663 48.1835 71.9291 48.7156 72.4612C49.3069 72.9934 49.6025 73.6142 49.6025 74.3237C49.6025 75.0333 49.3069 75.6541 48.7156 76.1863C48.1835 76.7184 47.4148 76.9845 46.4096 76.9845H27.4296ZM27.4296 65.6319C26.4244 65.6319 25.6262 65.3659 25.0349 64.8337C24.5028 64.3016 24.2367 63.6807 24.2367 62.9712C24.2367 62.2617 24.5028 61.6408 25.0349 61.1087C25.6262 60.5765 26.4244 60.3104 27.4296 60.3104H46.4096C47.4148 60.3104 48.1835 60.5765 48.7156 61.1087C49.3069 61.6408 49.6025 62.2617 49.6025 62.9712C49.6025 63.6807 49.3069 64.3016 48.7156 64.8337C48.1835 65.3659 47.4148 65.6319 46.4096 65.6319H27.4296ZM27.4296 54.2794C26.4244 54.2794 25.6262 54.0133 25.0349 53.4812C24.5028 52.949 24.2367 52.3282 24.2367 51.6187C24.2367 50.9091 24.5028 50.2883 25.0349 49.7561C25.6262 49.224 26.4244 48.9579 27.4296 48.9579H46.4096C47.4148 48.9579 48.1835 49.224 48.7156 49.7561C49.3069 50.2883 49.6025 50.9091 49.6025 51.6187C49.6025 52.3282 49.3069 52.949 48.7156 53.4812C48.1835 54.0133 47.4148 54.2794 46.4096 54.2794H27.4296ZM27.4296 42.9269C26.4244 42.9269 25.6262 42.6608 25.0349 42.1287C24.5028 41.5965 24.2367 40.9757 24.2367 40.2661C24.2367 39.5566 24.5028 38.9358 25.0349 38.4036C25.6262 37.8715 26.4244 37.6054 27.4296 37.6054H46.4096C47.4148 37.6054 48.1835 37.8715 48.7156 38.4036C49.3069 38.9358 49.6025 39.5566 49.6025 40.2661C49.6025 40.9757 49.3069 41.5965 48.7156 42.1287C48.1835 42.6608 47.4148 42.9269 46.4096 42.9269H27.4296ZM27.4296 31.5743C26.4244 31.5743 25.6262 31.3083 25.0349 30.7761C24.5028 30.244 24.2367 29.6231 24.2367 28.9136C24.2367 28.2041 24.5028 27.5832 25.0349 27.0511C25.6262 26.5189 26.4244 26.2528 27.4296 26.2528H46.4096C47.4148 26.2528 48.1835 26.5189 48.7156 27.0511C49.3069 27.5832 49.6025 28.2041 49.6025 28.9136C49.6025 29.6231 49.3069 30.244 48.7156 30.7761C48.1835 31.3083 47.4148 31.5743 46.4096 31.5743H27.4296ZM27.4296 20.2218C26.4244 20.2218 25.6262 19.9557 25.0349 19.4236C24.5028 18.8914 24.2367 18.2706 24.2367 17.5611C24.2367 16.8515 24.5028 16.2307 25.0349 15.6985C25.6262 15.1664 26.4244 14.9003 27.4296 14.9003H46.4096C47.4148 14.9003 48.1835 15.1664 48.7156 15.6985C49.3069 16.2307 49.6025 16.8515 49.6025 17.5611C49.6025 18.2706 49.3069 18.8914 48.7156 19.4236C48.1835 19.9557 47.4148 20.2218 46.4096 20.2218H27.4296ZM4.72453 8.86928C3.71936 8.86928 2.92114 8.60321 2.32986 8.07106C1.79771 7.53891 1.53163 6.91807 1.53163 6.20853C1.53163 5.499 1.79771 4.87816 2.32986 4.34601C2.92114 3.81386 3.71936 3.54778 4.72453 3.54778H69.1147C70.1199 3.54778 70.8885 3.81386 71.4207 4.34601C72.0119 4.87816 72.3076 5.499 72.3076 6.20853C72.3076 6.91807 72.0119 7.53891 71.4207 8.07106C70.8885 8.60321 70.1199 8.86928 69.1147 8.86928H4.72453ZM95.5448 76.9845C94.5396 76.9845 93.7414 76.7184 93.1501 76.1863C92.618 75.6541 92.3519 75.0333 92.3519 74.3237C92.3519 73.6142 92.618 72.9934 93.1501 72.4612C93.7414 71.9291 94.5396 71.663 95.5448 71.663H114.525C115.53 71.663 116.299 71.9291 116.831 72.4612C117.422 72.9934 117.718 73.6142 117.718 74.3237C117.718 75.0333 117.422 75.6541 116.831 76.1863C116.299 76.7184 115.53 76.9845 114.525 76.9845H95.5448ZM140.955 76.9845C139.95 76.9845 139.152 76.7184 138.56 76.1863C138.028 75.6541 137.762 75.0333 137.762 74.3237C137.762 73.6142 138.028 72.9934 138.56 72.4612C139.152 71.9291 139.95 71.663 140.955 71.663H159.935C160.94 71.663 161.709 71.9291 162.241 72.4612C162.832 72.9934 163.128 73.6142 163.128 74.3237C163.128 75.0333 162.832 75.6541 162.241 76.1863C161.709 76.7184 160.94 76.9845 159.935 76.9845H140.955ZM95.5448 65.6319C94.5396 65.6319 93.7414 65.3659 93.1501 64.8337C92.618 64.3016 92.3519 63.6807 92.3519 62.9712C92.3519 62.2617 92.618 61.6408 93.1501 61.1087C93.7414 60.5765 94.5396 60.3104 95.5448 60.3104H114.525C115.53 60.3104 116.299 60.5765 116.831 61.1087C117.422 61.6408 117.718 62.2617 117.718 62.9712C117.718 63.6807 117.422 64.3016 116.831 64.8337C116.299 65.3659 115.53 65.6319 114.525 65.6319H95.5448ZM140.955 65.6319C139.95 65.6319 139.152 65.3659 138.56 64.8337C138.028 64.3016 137.762 63.6807 137.762 62.9712C137.762 62.2617 138.028 61.6408 138.56 61.1087C139.152 60.5765 139.95 60.3104 140.955 60.3104H159.935C160.94 60.3104 161.709 60.5765 162.241 61.1087C162.832 61.6408 163.128 62.2617 163.128 62.9712C163.128 63.6807 162.832 64.3016 162.241 64.8337C161.709 65.3659 160.94 65.6319 159.935 65.6319H140.955ZM95.5448 54.2794C94.5396 54.2794 93.7414 54.0133 93.1501 53.4812C92.618 52.949 92.3519 52.3282 92.3519 51.6187C92.3519 50.9091 92.618 50.2883 93.1501 49.7561C93.7414 49.224 94.5396 48.9579 95.5448 48.9579H114.525C115.53 48.9579 116.299 49.224 116.831 49.7561C117.422 50.2883 117.718 50.9091 117.718 51.6187C117.718 52.3282 117.422 52.949 116.831 53.4812C116.299 54.0133 115.53 54.2794 114.525 54.2794H95.5448ZM140.955 54.2794C139.95 54.2794 139.152 54.0133 138.56 53.4812C138.028 52.949 137.762 52.3282 137.762 51.6187C137.762 50.9091 138.028 50.2883 138.56 49.7561C139.152 49.224 139.95 48.9579 140.955 48.9579H159.935C160.94 48.9579 161.709 49.224 162.241 49.7561C162.832 50.2883 163.128 50.9091 163.128 51.6187C163.128 52.3282 162.832 52.949 162.241 53.4812C161.709 54.0133 160.94 54.2794 159.935 54.2794H140.955ZM95.5448 42.9269C94.5396 42.9269 93.7414 42.6608 93.1501 42.1287C92.618 41.5965 92.3519 40.9757 92.3519 40.2661C92.3519 39.5566 92.618 38.9358 93.1501 38.4036C93.7414 37.8715 94.5396 37.6054 95.5448 37.6054H159.935C160.94 37.6054 161.709 37.8715 162.241 38.4036C162.832 38.9358 163.128 39.5566 163.128 40.2661C163.128 40.9757 162.832 41.5965 162.241 42.1287C161.709 42.6608 160.94 42.9269 159.935 42.9269H95.5448ZM95.5448 31.5743C94.5396 31.5743 93.7414 31.3083 93.1501 30.7761C92.618 30.244 92.3519 29.6231 92.3519 28.9136C92.3519 28.2041 92.618 27.5832 93.1501 27.0511C93.7414 26.5189 94.5396 26.2528 95.5448 26.2528H114.525C115.53 26.2528 116.299 26.5189 116.831 27.0511C117.422 27.5832 117.718 28.2041 117.718 28.9136C117.718 29.6231 117.422 30.244 116.831 30.7761C116.299 31.3083 115.53 31.5743 114.525 31.5743H95.5448ZM140.955 31.5743C139.95 31.5743 139.152 31.3083 138.56 30.7761C138.028 30.244 137.762 29.6231 137.762 28.9136C137.762 28.2041 138.028 27.5832 138.56 27.0511C139.152 26.5189 139.95 26.2528 140.955 26.2528H159.935C160.94 26.2528 161.709 26.5189 162.241 27.0511C162.832 27.5832 163.128 28.2041 163.128 28.9136C163.128 29.6231 162.832 30.244 162.241 30.7761C161.709 31.3083 160.94 31.5743 159.935 31.5743H140.955ZM95.5448 20.2218C94.5396 20.2218 93.7414 19.9557 93.1501 19.4236C92.618 18.8914 92.3519 18.2706 92.3519 17.5611C92.3519 16.8515 92.618 16.2307 93.1501 15.6985C93.7414 15.1664 94.5396 14.9003 95.5448 14.9003H114.525C115.53 14.9003 116.299 15.1664 116.831 15.6985C117.422 16.2307 117.718 16.8515 117.718 17.5611C117.718 18.2706 117.422 18.8914 116.831 19.4236C116.299 19.9557 115.53 20.2218 114.525 20.2218H95.5448ZM140.955 20.2218C139.95 20.2218 139.152 19.9557 138.56 19.4236C138.028 18.8914 137.762 18.2706 137.762 17.5611C137.762 16.8515 138.028 16.2307 138.56 15.6985C139.152 15.1664 139.95 14.9003 140.955 14.9003H159.935C160.94 14.9003 161.709 15.1664 162.241 15.6985C162.832 16.2307 163.128 16.8515 163.128 17.5611C163.128 18.2706 162.832 18.8914 162.241 19.4236C161.709 19.9557 160.94 20.2218 159.935 20.2218H140.955ZM95.5448 8.86928C94.5396 8.86928 93.7414 8.60321 93.1501 8.07106C92.618 7.53891 92.3519 6.91807 92.3519 6.20853C92.3519 5.499 92.618 4.87816 93.1501 4.34601C93.7414 3.81386 94.5396 3.54778 95.5448 3.54778H114.525C115.53 3.54778 116.299 3.81386 116.831 4.34601C117.422 4.87816 117.718 5.499 117.718 6.20853C117.718 6.91807 117.422 7.53891 116.831 8.07106C116.299 8.60321 115.53 8.86928 114.525 8.86928H95.5448ZM140.955 8.86928C139.95 8.86928 139.152 8.60321 138.56 8.07106C138.028 7.53891 137.762 6.91807 137.762 6.20853C137.762 5.499 138.028 4.87816 138.56 4.34601C139.152 3.81386 139.95 3.54778 140.955 3.54778H159.935C160.94 3.54778 161.709 3.81386 162.241 4.34601C162.832 4.87816 163.128 5.499 163.128 6.20853C163.128 6.91807 162.832 7.53891 162.241 8.07106C161.709 8.60321 160.94 8.86928 159.935 8.86928H140.955ZM186.365 76.9845C185.36 76.9845 184.562 76.7184 183.97 76.1863C183.438 75.6541 183.172 75.0333 183.172 74.3237C183.172 73.6142 183.438 72.9934 183.97 72.4612C184.562 71.9291 185.36 71.663 186.365 71.663H250.755C251.76 71.663 252.529 71.9291 253.061 72.4612C253.652 72.9934 253.948 73.6142 253.948 74.3237C253.948 75.0333 253.652 75.6541 253.061 76.1863C252.529 76.7184 251.76 76.9845 250.755 76.9845H186.365ZM186.365 65.6319C185.36 65.6319 184.562 65.3659 183.97 64.8337C183.438 64.3016 183.172 63.6807 183.172 62.9712C183.172 62.2617 183.438 61.6408 183.97 61.1087C184.562 60.5765 185.36 60.3104 186.365 60.3104H205.345C206.35 60.3104 207.119 60.5765 207.651 61.1087C208.242 61.6408 208.538 62.2617 208.538 62.9712C208.538 63.6807 208.242 64.3016 207.651 64.8337C207.119 65.3659 206.35 65.6319 205.345 65.6319H186.365ZM186.365 54.2794C185.36 54.2794 184.562 54.0133 183.97 53.4812C183.438 52.949 183.172 52.3282 183.172 51.6187C183.172 50.9091 183.438 50.2883 183.97 49.7561C184.562 49.224 185.36 48.9579 186.365 48.9579H205.345C206.35 48.9579 207.119 49.224 207.651 49.7561C208.242 50.2883 208.538 50.9091 208.538 51.6187C208.538 52.3282 208.242 52.949 207.651 53.4812C207.119 54.0133 206.35 54.2794 205.345 54.2794H186.365ZM186.365 42.9269C185.36 42.9269 184.562 42.6608 183.97 42.1287C183.438 41.5965 183.172 40.9757 183.172 40.2661C183.172 39.5566 183.438 38.9358 183.97 38.4036C184.562 37.8715 185.36 37.6054 186.365 37.6054H228.05C229.055 37.6054 229.824 37.8715 230.356 38.4036C230.947 38.9358 231.243 39.5566 231.243 40.2661C231.243 40.9757 230.947 41.5965 230.356 42.1287C229.824 42.6608 229.055 42.9269 228.05 42.9269H186.365ZM186.365 31.5743C185.36 31.5743 184.562 31.3083 183.97 30.7761C183.438 30.244 183.172 29.6231 183.172 28.9136C183.172 28.2041 183.438 27.5832 183.97 27.0511C184.562 26.5189 185.36 26.2528 186.365 26.2528H205.345C206.35 26.2528 207.119 26.5189 207.651 27.0511C208.242 27.5832 208.538 28.2041 208.538 28.9136C208.538 29.6231 208.242 30.244 207.651 30.7761C207.119 31.3083 206.35 31.5743 205.345 31.5743H186.365ZM186.365 20.2218C185.36 20.2218 184.562 19.9557 183.97 19.4236C183.438 18.8914 183.172 18.2706 183.172 17.5611C183.172 16.8515 183.438 16.2307 183.97 15.6985C184.562 15.1664 185.36 14.9003 186.365 14.9003H205.345C206.35 14.9003 207.119 15.1664 207.651 15.6985C208.242 16.2307 208.538 16.8515 208.538 17.5611C208.538 18.2706 208.242 18.8914 207.651 19.4236C207.119 19.9557 206.35 20.2218 205.345 20.2218H186.365ZM186.365 8.86928C185.36 8.86928 184.562 8.60321 183.97 8.07106C183.438 7.53891 183.172 6.91807 183.172 6.20853C183.172 5.499 183.438 4.87816 183.97 4.34601C184.562 3.81386 185.36 3.54778 186.365 3.54778H250.755C251.76 3.54778 252.529 3.81386 253.061 4.34601C253.652 4.87816 253.948 5.499 253.948 6.20853C253.948 6.91807 253.652 7.53891 253.061 8.07106C252.529 8.60321 251.76 8.86928 250.755 8.86928H186.365Z" fill="black"/>
<path d="M16.0771 177.905C15.0719 177.905 14.2737 177.639 13.6824 177.107C13.1502 176.575 12.8842 175.954 12.8842 175.244C12.8842 174.535 13.1502 173.914 13.6824 173.382C14.2737 172.85 15.0719 172.584 16.0771 172.584H57.7622C58.7673 172.584 59.536 172.85 60.0681 173.382C60.6594 173.914 60.9551 174.535 60.9551 175.244C60.9551 175.954 60.6594 176.575 60.0681 177.107C59.536 177.639 58.7673 177.905 57.7622 177.905H16.0771ZM4.72453 166.552C3.71936 166.552 2.92114 166.286 2.32986 165.754C1.79771 165.222 1.53163 164.601 1.53163 163.892C1.53163 163.182 1.79771 162.561 2.32986 162.029C2.92114 161.497 3.71936 161.231 4.72453 161.231H23.7046C24.7097 161.231 25.4784 161.497 26.0105 162.029C26.6018 162.561 26.8975 163.182 26.8975 163.892C26.8975 164.601 26.6018 165.222 26.0105 165.754C25.4784 166.286 24.7097 166.552 23.7046 166.552H4.72453ZM50.1347 166.552C49.1295 166.552 48.3313 166.286 47.74 165.754C47.2078 165.222 46.9418 164.601 46.9418 163.892C46.9418 163.182 47.2078 162.561 47.74 162.029C48.3313 161.497 49.1295 161.231 50.1347 161.231H69.1147C70.1199 161.231 70.8885 161.497 71.4207 162.029C72.0119 162.561 72.3076 163.182 72.3076 163.892C72.3076 164.601 72.0119 165.222 71.4207 165.754C70.8885 166.286 70.1199 166.552 69.1147 166.552H50.1347ZM4.72453 155.2C3.71936 155.2 2.92114 154.934 2.32986 154.402C1.79771 153.87 1.53163 153.249 1.53163 152.539C1.53163 151.83 1.79771 151.209 2.32986 150.677C2.92114 150.145 3.71936 149.878 4.72453 149.878H23.7046C24.7097 149.878 25.4784 150.145 26.0105 150.677C26.6018 151.209 26.8975 151.83 26.8975 152.539C26.8975 153.249 26.6018 153.87 26.0105 154.402C25.4784 154.934 24.7097 155.2 23.7046 155.2H4.72453ZM4.72453 143.847C3.71936 143.847 2.92114 143.581 2.32986 143.049C1.79771 142.517 1.53163 141.896 1.53163 141.187C1.53163 140.477 1.79771 139.856 2.32986 139.324C2.92114 138.792 3.71936 138.526 4.72453 138.526H23.7046C24.7097 138.526 25.4784 138.792 26.0105 139.324C26.6018 139.856 26.8975 140.477 26.8975 141.187C26.8975 141.896 26.6018 142.517 26.0105 143.049C25.4784 143.581 24.7097 143.847 23.7046 143.847H4.72453ZM4.72453 132.495C3.71936 132.495 2.92114 132.229 2.32986 131.697C1.79771 131.165 1.53163 130.544 1.53163 129.834C1.53163 129.125 1.79771 128.504 2.32986 127.972C2.92114 127.439 3.71936 127.173 4.72453 127.173H23.7046C24.7097 127.173 25.4784 127.439 26.0105 127.972C26.6018 128.504 26.8975 129.125 26.8975 129.834C26.8975 130.544 26.6018 131.165 26.0105 131.697C25.4784 132.229 24.7097 132.495 23.7046 132.495H4.72453ZM4.72453 121.142C3.71936 121.142 2.92114 120.876 2.32986 120.344C1.79771 119.812 1.53163 119.191 1.53163 118.482C1.53163 117.772 1.79771 117.151 2.32986 116.619C2.92114 116.087 3.71936 115.821 4.72453 115.821H23.7046C24.7097 115.821 25.4784 116.087 26.0105 116.619C26.6018 117.151 26.8975 117.772 26.8975 118.482C26.8975 119.191 26.6018 119.812 26.0105 120.344C25.4784 120.876 24.7097 121.142 23.7046 121.142H4.72453ZM50.1347 121.142C49.1295 121.142 48.3313 120.876 47.74 120.344C47.2078 119.812 46.9418 119.191 46.9418 118.482C46.9418 117.772 47.2078 117.151 47.74 116.619C48.3313 116.087 49.1295 115.821 50.1347 115.821H69.1147C70.1199 115.821 70.8885 116.087 71.4207 116.619C72.0119 117.151 72.3076 117.772 72.3076 118.482C72.3076 119.191 72.0119 119.812 71.4207 120.344C70.8885 120.876 70.1199 121.142 69.1147 121.142H50.1347ZM16.0771 109.79C15.0719 109.79 14.2737 109.524 13.6824 108.992C13.1502 108.459 12.8842 107.839 12.8842 107.129C12.8842 106.42 13.1502 105.799 13.6824 105.267C14.2737 104.734 15.0719 104.468 16.0771 104.468H57.7622C58.7673 104.468 59.536 104.734 60.0681 105.267C60.6594 105.799 60.9551 106.42 60.9551 107.129C60.9551 107.839 60.6594 108.459 60.0681 108.992C59.536 109.524 58.7673 109.79 57.7622 109.79H16.0771ZM106.897 177.905C105.892 177.905 105.094 177.639 104.503 177.107C103.971 176.575 103.704 175.954 103.704 175.244C103.704 174.535 103.971 173.914 104.503 173.382C105.094 172.85 105.892 172.584 106.897 172.584H148.582C149.588 172.584 150.356 172.85 150.888 173.382C151.48 173.914 151.775 174.535 151.775 175.244C151.775 175.954 151.48 176.575 150.888 177.107C150.356 177.639 149.588 177.905 148.582 177.905H106.897ZM95.5448 166.552C94.5396 166.552 93.7414 166.286 93.1501 165.754C92.618 165.222 92.3519 164.601 92.3519 163.892C92.3519 163.182 92.618 162.561 93.1501 162.029C93.7414 161.497 94.5396 161.231 95.5448 161.231H114.525C115.53 161.231 116.299 161.497 116.831 162.029C117.422 162.561 117.718 163.182 117.718 163.892C117.718 164.601 117.422 165.222 116.831 165.754C116.299 166.286 115.53 166.552 114.525 166.552H95.5448ZM140.955 166.552C139.95 166.552 139.152 166.286 138.56 165.754C138.028 165.222 137.762 164.601 137.762 163.892C137.762 163.182 138.028 162.561 138.56 162.029C139.152 161.497 139.95 161.231 140.955 161.231H159.935C160.94 161.231 161.709 161.497 162.241 162.029C162.832 162.561 163.128 163.182 163.128 163.892C163.128 164.601 162.832 165.222 162.241 165.754C161.709 166.286 160.94 166.552 159.935 166.552H140.955ZM95.5448 155.2C94.5396 155.2 93.7414 154.934 93.1501 154.402C92.618 153.87 92.3519 153.249 92.3519 152.539C92.3519 151.83 92.618 151.209 93.1501 150.677C93.7414 150.145 94.5396 149.878 95.5448 149.878H114.525C115.53 149.878 116.299 150.145 116.831 150.677C117.422 151.209 117.718 151.83 117.718 152.539C117.718 153.249 117.422 153.87 116.831 154.402C116.299 154.934 115.53 155.2 114.525 155.2H95.5448ZM140.955 155.2C139.95 155.2 139.152 154.934 138.56 154.402C138.028 153.87 137.762 153.249 137.762 152.539C137.762 151.83 138.028 151.209 138.56 150.677C139.152 150.145 139.95 149.878 140.955 149.878H159.935C160.94 149.878 161.709 150.145 162.241 150.677C162.832 151.209 163.128 151.83 163.128 152.539C163.128 153.249 162.832 153.87 162.241 154.402C161.709 154.934 160.94 155.2 159.935 155.2H140.955ZM95.5448 143.847C94.5396 143.847 93.7414 143.581 93.1501 143.049C92.618 142.517 92.3519 141.896 92.3519 141.187C92.3519 140.477 92.618 139.856 93.1501 139.324C93.7414 138.792 94.5396 138.526 95.5448 138.526H114.525C115.53 138.526 116.299 138.792 116.831 139.324C117.422 139.856 117.718 140.477 117.718 141.187C117.718 141.896 117.422 142.517 116.831 143.049C116.299 143.581 115.53 143.847 114.525 143.847H95.5448ZM140.955 143.847C139.95 143.847 139.152 143.581 138.56 143.049C138.028 142.517 137.762 141.896 137.762 141.187C137.762 140.477 138.028 139.856 138.56 139.324C139.152 138.792 139.95 138.526 140.955 138.526H159.935C160.94 138.526 161.709 138.792 162.241 139.324C162.832 139.856 163.128 140.477 163.128 141.187C163.128 141.896 162.832 142.517 162.241 143.049C161.709 143.581 160.94 143.847 159.935 143.847H140.955ZM95.5448 132.495C94.5396 132.495 93.7414 132.229 93.1501 131.697C92.618 131.165 92.3519 130.544 92.3519 129.834C92.3519 129.125 92.618 128.504 93.1501 127.972C93.7414 127.439 94.5396 127.173 95.5448 127.173H114.525C115.53 127.173 116.299 127.439 116.831 127.972C117.422 128.504 117.718 129.125 117.718 129.834C117.718 130.544 117.422 131.165 116.831 131.697C116.299 132.229 115.53 132.495 114.525 132.495H95.5448ZM140.955 132.495C139.95 132.495 139.152 132.229 138.56 131.697C138.028 131.165 137.762 130.544 137.762 129.834C137.762 129.125 138.028 128.504 138.56 127.972C139.152 127.439 139.95 127.173 140.955 127.173H159.935C160.94 127.173 161.709 127.439 162.241 127.972C162.832 128.504 163.128 129.125 163.128 129.834C163.128 130.544 162.832 131.165 162.241 131.697C161.709 132.229 160.94 132.495 159.935 132.495H140.955ZM95.5448 121.142C94.5396 121.142 93.7414 120.876 93.1501 120.344C92.618 119.812 92.3519 119.191 92.3519 118.482C92.3519 117.772 92.618 117.151 93.1501 116.619C93.7414 116.087 94.5396 115.821 95.5448 115.821H114.525C115.53 115.821 116.299 116.087 116.831 116.619C117.422 117.151 117.718 117.772 117.718 118.482C117.718 119.191 117.422 119.812 116.831 120.344C116.299 120.876 115.53 121.142 114.525 121.142H95.5448ZM140.955 121.142C139.95 121.142 139.152 120.876 138.56 120.344C138.028 119.812 137.762 119.191 137.762 118.482C137.762 117.772 138.028 117.151 138.56 116.619C139.152 116.087 139.95 115.821 140.955 115.821H159.935C160.94 115.821 161.709 116.087 162.241 116.619C162.832 117.151 163.128 117.772 163.128 118.482C163.128 119.191 162.832 119.812 162.241 120.344C161.709 120.876 160.94 121.142 159.935 121.142H140.955ZM106.897 109.79C105.892 109.79 105.094 109.524 104.503 108.992C103.971 108.459 103.704 107.839 103.704 107.129C103.704 106.42 103.971 105.799 104.503 105.267C105.094 104.734 105.892 104.468 106.897 104.468H148.582C149.588 104.468 150.356 104.734 150.888 105.267C151.48 105.799 151.775 106.42 151.775 107.129C151.775 107.839 151.48 108.459 150.888 108.992C150.356 109.524 149.588 109.79 148.582 109.79H106.897ZM186.365 177.905C185.36 177.905 184.562 177.639 183.97 177.107C183.438 176.575 183.172 175.954 183.172 175.244C183.172 174.535 183.438 173.914 183.97 173.382C184.562 172.85 185.36 172.584 186.365 172.584H205.345C206.35 172.584 207.119 172.85 207.651 173.382C208.242 173.914 208.538 174.535 208.538 175.244C208.538 175.954 208.242 176.575 207.651 177.107C207.119 177.639 206.35 177.905 205.345 177.905H186.365ZM243.128 177.905C242.123 177.905 241.324 177.639 240.733 177.107C240.201 176.575 239.935 175.954 239.935 175.244C239.935 174.535 240.201 173.914 240.733 173.382C241.324 172.85 242.123 172.584 243.128 172.584H262.108C263.113 172.584 263.882 172.85 264.414 173.382C265.005 173.914 265.301 174.535 265.301 175.244C265.301 175.954 265.005 176.575 264.414 177.107C263.882 177.639 263.113 177.905 262.108 177.905H243.128ZM186.365 166.552C185.36 166.552 184.562 166.286 183.97 165.754C183.438 165.222 183.172 164.601 183.172 163.892C183.172 163.182 183.438 162.561 183.97 162.029C184.562 161.497 185.36 161.231 186.365 161.231H205.345C206.35 161.231 207.119 161.497 207.651 162.029C208.242 162.561 208.538 163.182 208.538 163.892C208.538 164.601 208.242 165.222 207.651 165.754C207.119 166.286 206.35 166.552 205.345 166.552H186.365ZM243.128 166.552C242.123 166.552 241.324 166.286 240.733 165.754C240.201 165.222 239.935 164.601 239.935 163.892C239.935 163.182 240.201 162.561 240.733 162.029C241.324 161.497 242.123 161.231 243.128 161.231H262.108C263.113 161.231 263.882 161.497 264.414 162.029C265.005 162.561 265.301 163.182 265.301 163.892C265.301 164.601 265.005 165.222 264.414 165.754C263.882 166.286 263.113 166.552 262.108 166.552H243.128ZM186.365 155.2C185.36 155.2 184.562 154.934 183.97 154.402C183.438 153.87 183.172 153.249 183.172 152.539C183.172 151.83 183.438 151.209 183.97 150.677C184.562 150.145 185.36 149.878 186.365 149.878H205.345C206.35 149.878 207.119 150.145 207.651 150.677C208.242 151.209 208.538 151.83 208.538 152.539C208.538 153.249 208.242 153.87 207.651 154.402C207.119 154.934 206.35 155.2 205.345 155.2H186.365ZM243.128 155.2C242.123 155.2 241.324 154.934 240.733 154.402C240.201 153.87 239.935 153.249 239.935 152.539C239.935 151.83 240.201 151.209 240.733 150.677C241.324 150.145 242.123 149.878 243.128 149.878H262.108C263.113 149.878 263.882 150.145 264.414 150.677C265.005 151.209 265.301 151.83 265.301 152.539C265.301 153.249 265.005 153.87 264.414 154.402C263.882 154.934 263.113 155.2 262.108 155.2H243.128ZM186.365 143.847C185.36 143.847 184.562 143.581 183.97 143.049C183.438 142.517 183.172 141.896 183.172 141.187C183.172 140.477 183.438 139.856 183.97 139.324C184.562 138.792 185.36 138.526 186.365 138.526H205.345C206.35 138.526 207.119 138.792 207.651 139.324C208.242 139.856 208.538 140.477 208.538 141.187C208.538 141.896 208.242 142.517 207.651 143.049C207.119 143.581 206.35 143.847 205.345 143.847H186.365ZM220.068 143.847C219.24 143.847 218.56 143.581 218.028 143.049C217.496 142.517 217.23 141.896 217.23 141.187C217.23 140.477 217.496 139.856 218.028 139.324C218.56 138.792 219.24 138.526 220.068 138.526H228.405C229.233 138.526 229.913 138.792 230.445 139.324C230.977 139.856 231.243 140.477 231.243 141.187C231.243 141.896 230.977 142.517 230.445 143.049C229.913 143.581 229.233 143.847 228.405 143.847H220.068ZM243.128 143.847C242.123 143.847 241.324 143.581 240.733 143.049C240.201 142.517 239.935 141.896 239.935 141.187C239.935 140.477 240.201 139.856 240.733 139.324C241.324 138.792 242.123 138.526 243.128 138.526H262.108C263.113 138.526 263.882 138.792 264.414 139.324C265.005 139.856 265.301 140.477 265.301 141.187C265.301 141.896 265.005 142.517 264.414 143.049C263.882 143.581 263.113 143.847 262.108 143.847H243.128ZM186.365 132.495C185.36 132.495 184.562 132.229 183.97 131.697C183.438 131.165 183.172 130.544 183.172 129.834C183.172 129.125 183.438 128.504 183.97 127.972C184.562 127.439 185.36 127.173 186.365 127.173H262.108C263.113 127.173 263.882 127.439 264.414 127.972C265.005 128.504 265.301 129.125 265.301 129.834C265.301 130.544 265.005 131.165 264.414 131.697C263.882 132.229 263.113 132.495 262.108 132.495H186.365ZM186.365 121.142C185.36 121.142 184.562 120.876 183.97 120.344C183.438 119.812 183.172 119.191 183.172 118.482C183.172 117.772 183.438 117.151 183.97 116.619C184.562 116.087 185.36 115.821 186.365 115.821H216.698C217.703 115.821 218.471 116.087 219.004 116.619C219.595 117.151 219.891 117.772 219.891 118.482C219.891 119.191 219.595 119.812 219.004 120.344C218.471 120.876 217.703 121.142 216.698 121.142H186.365ZM231.775 121.142C230.77 121.142 229.972 120.876 229.381 120.344C228.848 119.812 228.582 119.191 228.582 118.482C228.582 117.772 228.848 117.151 229.381 116.619C229.972 116.087 230.77 115.821 231.775 115.821H262.108C263.113 115.821 263.882 116.087 264.414 116.619C265.005 117.151 265.301 117.772 265.301 118.482C265.301 119.191 265.005 119.812 264.414 120.344C263.882 120.876 263.113 121.142 262.108 121.142H231.775ZM186.365 109.79C185.36 109.79 184.562 109.524 183.97 108.992C183.438 108.459 183.172 107.839 183.172 107.129C183.172 106.42 183.438 105.799 183.97 105.267C184.562 104.734 185.36 104.468 186.365 104.468H205.345C206.35 104.468 207.119 104.734 207.651 105.267C208.242 105.799 208.538 106.42 208.538 107.129C208.538 107.839 208.242 108.459 207.651 108.992C207.119 109.524 206.35 109.79 205.345 109.79H186.365ZM243.128 109.79C242.123 109.79 241.324 109.524 240.733 108.992C240.201 108.459 239.935 107.839 239.935 107.129C239.935 106.42 240.201 105.799 240.733 105.267C241.324 104.734 242.123 104.468 243.128 104.468H262.108C263.113 104.468 263.882 104.734 264.414 105.267C265.005 105.799 265.301 106.42 265.301 107.129C265.301 107.839 265.005 108.459 264.414 108.992C263.882 109.524 263.113 109.79 262.108 109.79H243.128ZM277.185 177.905C276.18 177.905 275.382 177.639 274.791 177.107C274.259 176.575 273.992 175.954 273.992 175.244C273.992 174.535 274.259 173.914 274.791 173.382C275.382 172.85 276.18 172.584 277.185 172.584H296.165C297.171 172.584 297.939 172.85 298.471 173.382C299.063 173.914 299.358 174.535 299.358 175.244C299.358 175.954 299.063 176.575 298.471 177.107C297.939 177.639 297.171 177.905 296.165 177.905H277.185ZM277.185 166.552C276.18 166.552 275.382 166.286 274.791 165.754C274.259 165.222 273.992 164.601 273.992 163.892C273.992 163.182 274.259 162.561 274.791 162.029C275.382 161.497 276.18 161.231 277.185 161.231H296.165C297.171 161.231 297.939 161.497 298.471 162.029C299.063 162.561 299.358 163.182 299.358 163.892C299.358 164.601 299.063 165.222 298.471 165.754C297.939 166.286 297.171 166.552 296.165 166.552H277.185ZM277.185 155.2C276.18 155.2 275.382 154.934 274.791 154.402C274.259 153.87 273.992 153.249 273.992 152.539C273.992 151.83 274.259 151.209 274.791 150.677C275.382 150.145 276.18 149.878 277.185 149.878H296.165C297.171 149.878 297.939 150.145 298.471 150.677C299.063 151.209 299.358 151.83 299.358 152.539C299.358 153.249 299.063 153.87 298.471 154.402C297.939 154.934 297.171 155.2 296.165 155.2H277.185ZM277.185 143.847C276.18 143.847 275.382 143.581 274.791 143.049C274.259 142.517 273.992 141.896 273.992 141.187C273.992 140.477 274.259 139.856 274.791 139.324C275.382 138.792 276.18 138.526 277.185 138.526H330.223C331.228 138.526 331.997 138.792 332.529 139.324C333.12 139.856 333.416 140.477 333.416 141.187C333.416 141.896 333.12 142.517 332.529 143.049C331.997 143.581 331.228 143.847 330.223 143.847H277.185ZM277.185 132.495C276.18 132.495 275.382 132.229 274.791 131.697C274.259 131.165 273.992 130.544 273.992 129.834C273.992 129.125 274.259 128.504 274.791 127.972C275.382 127.439 276.18 127.173 277.185 127.173H296.165C297.171 127.173 297.939 127.439 298.471 127.972C299.063 128.504 299.358 129.125 299.358 129.834C299.358 130.544 299.063 131.165 298.471 131.697C297.939 132.229 297.171 132.495 296.165 132.495H277.185ZM322.595 132.495C321.59 132.495 320.792 132.229 320.201 131.697C319.669 131.165 319.403 130.544 319.403 129.834C319.403 129.125 319.669 128.504 320.201 127.972C320.792 127.439 321.59 127.173 322.595 127.173H341.575C342.581 127.173 343.349 127.439 343.881 127.972C344.473 128.504 344.768 129.125 344.768 129.834C344.768 130.544 344.473 131.165 343.881 131.697C343.349 132.229 342.581 132.495 341.575 132.495H322.595ZM277.185 121.142C276.18 121.142 275.382 120.876 274.791 120.344C274.259 119.812 273.992 119.191 273.992 118.482C273.992 117.772 274.259 117.151 274.791 116.619C275.382 116.087 276.18 115.821 277.185 115.821H296.165C297.171 115.821 297.939 116.087 298.471 116.619C299.063 117.151 299.358 117.772 299.358 118.482C299.358 119.191 299.063 119.812 298.471 120.344C297.939 120.876 297.171 121.142 296.165 121.142H277.185ZM322.595 121.142C321.59 121.142 320.792 120.876 320.201 120.344C319.669 119.812 319.403 119.191 319.403 118.482C319.403 117.772 319.669 117.151 320.201 116.619C320.792 116.087 321.59 115.821 322.595 115.821H341.575C342.581 115.821 343.349 116.087 343.881 116.619C344.473 117.151 344.768 117.772 344.768 118.482C344.768 119.191 344.473 119.812 343.881 120.344C343.349 120.876 342.581 121.142 341.575 121.142H322.595ZM277.185 109.79C276.18 109.79 275.382 109.524 274.791 108.992C274.259 108.459 273.992 107.839 273.992 107.129C273.992 106.42 274.259 105.799 274.791 105.267C275.382 104.734 276.18 104.468 277.185 104.468H330.223C331.228 104.468 331.997 104.734 332.529 105.267C333.12 105.799 333.416 106.42 333.416 107.129C333.416 107.839 333.12 108.459 332.529 108.992C331.997 109.524 331.228 109.79 330.223 109.79H277.185ZM358.924 177.905C357.918 177.905 357.12 177.639 356.529 177.107C355.997 176.575 355.731 175.954 355.731 175.244C355.731 174.535 355.997 173.914 356.529 173.382C357.12 172.85 357.918 172.584 358.924 172.584H377.904C378.909 172.584 379.677 172.85 380.21 173.382C380.801 173.914 381.096 174.535 381.096 175.244C381.096 175.954 380.801 176.575 380.21 177.107C379.677 177.639 378.909 177.905 377.904 177.905H358.924ZM404.334 177.905C403.329 177.905 402.53 177.639 401.939 177.107C401.407 176.575 401.141 175.954 401.141 175.244C401.141 174.535 401.407 173.914 401.939 173.382C402.53 172.85 403.329 172.584 404.334 172.584H423.314C424.319 172.584 425.088 172.85 425.62 173.382C426.211 173.914 426.507 174.535 426.507 175.244C426.507 175.954 426.211 176.575 425.62 177.107C425.088 177.639 424.319 177.905 423.314 177.905H404.334ZM358.924 166.552C357.918 166.552 357.12 166.286 356.529 165.754C355.997 165.222 355.731 164.601 355.731 163.892C355.731 163.182 355.997 162.561 356.529 162.029C357.12 161.497 357.918 161.231 358.924 161.231H377.904C378.909 161.231 379.677 161.497 380.21 162.029C380.801 162.561 381.096 163.182 381.096 163.892C381.096 164.601 380.801 165.222 380.21 165.754C379.677 166.286 378.909 166.552 377.904 166.552H358.924ZM404.334 166.552C403.329 166.552 402.53 166.286 401.939 165.754C401.407 165.222 401.141 164.601 401.141 163.892C401.141 163.182 401.407 162.561 401.939 162.029C402.53 161.497 403.329 161.231 404.334 161.231H423.314C424.319 161.231 425.088 161.497 425.62 162.029C426.211 162.561 426.507 163.182 426.507 163.892C426.507 164.601 426.211 165.222 425.62 165.754C425.088 166.286 424.319 166.552 423.314 166.552H404.334ZM358.924 155.2C357.918 155.2 357.12 154.934 356.529 154.402C355.997 153.87 355.731 153.249 355.731 152.539C355.731 151.83 355.997 151.209 356.529 150.677C357.12 150.145 357.918 149.878 358.924 149.878H377.904C378.909 149.878 379.677 150.145 380.21 150.677C380.801 151.209 381.096 151.83 381.096 152.539C381.096 153.249 380.801 153.87 380.21 154.402C379.677 154.934 378.909 155.2 377.904 155.2H358.924ZM404.334 155.2C403.329 155.2 402.53 154.934 401.939 154.402C401.407 153.87 401.141 153.249 401.141 152.539C401.141 151.83 401.407 151.209 401.939 150.677C402.53 150.145 403.329 149.878 404.334 149.878H423.314C424.319 149.878 425.088 150.145 425.62 150.677C426.211 151.209 426.507 151.83 426.507 152.539C426.507 153.249 426.211 153.87 425.62 154.402C425.088 154.934 424.319 155.2 423.314 155.2H404.334ZM358.924 143.847C357.918 143.847 357.12 143.581 356.529 143.049C355.997 142.517 355.731 141.896 355.731 141.187C355.731 140.477 355.997 139.856 356.529 139.324C357.12 138.792 357.918 138.526 358.924 138.526H423.314C424.319 138.526 425.088 138.792 425.62 139.324C426.211 139.856 426.507 140.477 426.507 141.187C426.507 141.896 426.211 142.517 425.62 143.049C425.088 143.581 424.319 143.847 423.314 143.847H358.924ZM358.924 132.495C357.918 132.495 357.12 132.229 356.529 131.697C355.997 131.165 355.731 130.544 355.731 129.834C355.731 129.125 355.997 128.504 356.529 127.972C357.12 127.439 357.918 127.173 358.924 127.173H377.904C378.909 127.173 379.677 127.439 380.21 127.972C380.801 128.504 381.096 129.125 381.096 129.834C381.096 130.544 380.801 131.165 380.21 131.697C379.677 132.229 378.909 132.495 377.904 132.495H358.924ZM404.334 132.495C403.329 132.495 402.53 132.229 401.939 131.697C401.407 131.165 401.141 130.544 401.141 129.834C401.141 129.125 401.407 128.504 401.939 127.972C402.53 127.439 403.329 127.173 404.334 127.173H423.314C424.319 127.173 425.088 127.439 425.62 127.972C426.211 128.504 426.507 129.125 426.507 129.834C426.507 130.544 426.211 131.165 425.62 131.697C425.088 132.229 424.319 132.495 423.314 132.495H404.334ZM370.276 121.142C369.271 121.142 368.473 120.876 367.881 120.344C367.349 119.812 367.083 119.191 367.083 118.482C367.083 117.772 367.349 117.151 367.881 116.619C368.473 116.087 369.271 115.821 370.276 115.821H411.961C412.966 115.821 413.735 116.087 414.267 116.619C414.858 117.151 415.154 117.772 415.154 118.482C415.154 119.191 414.858 119.812 414.267 120.344C413.735 120.876 412.966 121.142 411.961 121.142H370.276ZM381.629 109.79C380.623 109.79 379.825 109.524 379.234 108.992C378.702 108.459 378.436 107.839 378.436 107.129C378.436 106.42 378.702 105.799 379.234 105.267C379.825 104.734 380.623 104.468 381.629 104.468H400.609C401.614 104.468 402.382 104.734 402.915 105.267C403.506 105.799 403.802 106.42 403.802 107.129C403.802 107.839 403.506 108.459 402.915 108.992C402.382 109.524 401.614 109.79 400.609 109.79H381.629ZM440.662 177.905C439.657 177.905 438.858 177.639 438.267 177.107C437.735 176.575 437.469 175.954 437.469 175.244C437.469 174.535 437.735 173.914 438.267 173.382C438.858 172.85 439.657 172.584 440.662 172.584H459.642C460.647 172.584 461.416 172.85 461.948 173.382C462.539 173.914 462.835 174.535 462.835 175.244C462.835 175.954 462.539 176.575 461.948 177.107C461.416 177.639 460.647 177.905 459.642 177.905H440.662ZM486.072 177.905C485.067 177.905 484.269 177.639 483.677 177.107C483.145 176.575 482.879 175.954 482.879 175.244C482.879 174.535 483.145 173.914 483.677 173.382C484.269 172.85 485.067 172.584 486.072 172.584H505.052C506.057 172.584 506.826 172.85 507.358 173.382C507.949 173.914 508.245 174.535 508.245 175.244C508.245 175.954 507.949 176.575 507.358 177.107C506.826 177.639 506.057 177.905 505.052 177.905H486.072ZM440.662 166.552C439.657 166.552 438.858 166.286 438.267 165.754C437.735 165.222 437.469 164.601 437.469 163.892C437.469 163.182 437.735 162.561 438.267 162.029C438.858 161.497 439.657 161.231 440.662 161.231H459.642C460.647 161.231 461.416 161.497 461.948 162.029C462.539 162.561 462.835 163.182 462.835 163.892C462.835 164.601 462.539 165.222 461.948 165.754C461.416 166.286 460.647 166.552 459.642 166.552H440.662ZM486.072 166.552C485.067 166.552 484.269 166.286 483.677 165.754C483.145 165.222 482.879 164.601 482.879 163.892C482.879 163.182 483.145 162.561 483.677 162.029C484.269 161.497 485.067 161.231 486.072 161.231H505.052C506.057 161.231 506.826 161.497 507.358 162.029C507.949 162.561 508.245 163.182 508.245 163.892C508.245 164.601 507.949 165.222 507.358 165.754C506.826 166.286 506.057 166.552 505.052 166.552H486.072ZM440.662 155.2C439.657 155.2 438.858 154.934 438.267 154.402C437.735 153.87 437.469 153.249 437.469 152.539C437.469 151.83 437.735 151.209 438.267 150.677C438.858 150.145 439.657 149.878 440.662 149.878H459.642C460.647 149.878 461.416 150.145 461.948 150.677C462.539 151.209 462.835 151.83 462.835 152.539C462.835 153.249 462.539 153.87 461.948 154.402C461.416 154.934 460.647 155.2 459.642 155.2H440.662ZM486.072 155.2C485.067 155.2 484.269 154.934 483.677 154.402C483.145 153.87 482.879 153.249 482.879 152.539C482.879 151.83 483.145 151.209 483.677 150.677C484.269 150.145 485.067 149.878 486.072 149.878H505.052C506.057 149.878 506.826 150.145 507.358 150.677C507.949 151.209 508.245 151.83 508.245 152.539C508.245 153.249 507.949 153.87 507.358 154.402C506.826 154.934 506.057 155.2 505.052 155.2H486.072ZM440.662 143.847C439.657 143.847 438.858 143.581 438.267 143.049C437.735 142.517 437.469 141.896 437.469 141.187C437.469 140.477 437.735 139.856 438.267 139.324C438.858 138.792 439.657 138.526 440.662 138.526H459.642C460.647 138.526 461.416 138.792 461.948 139.324C462.539 139.856 462.835 140.477 462.835 141.187C462.835 141.896 462.539 142.517 461.948 143.049C461.416 143.581 460.647 143.847 459.642 143.847H440.662ZM474.719 143.847C473.714 143.847 472.916 143.581 472.325 143.049C471.793 142.517 471.527 141.896 471.527 141.187C471.527 140.477 471.793 139.856 472.325 139.324C472.916 138.792 473.714 138.526 474.719 138.526H505.052C506.057 138.526 506.826 138.792 507.358 139.324C507.949 139.856 508.245 140.477 508.245 141.187C508.245 141.896 507.949 142.517 507.358 143.049C506.826 143.581 506.057 143.847 505.052 143.847H474.719ZM440.662 132.495C439.657 132.495 438.858 132.229 438.267 131.697C437.735 131.165 437.469 130.544 437.469 129.834C437.469 129.125 437.735 128.504 438.267 127.972C438.858 127.439 439.657 127.173 440.662 127.173H505.052C506.057 127.173 506.826 127.439 507.358 127.972C507.949 128.504 508.245 129.125 508.245 129.834C508.245 130.544 507.949 131.165 507.358 131.697C506.826 132.229 506.057 132.495 505.052 132.495H440.662ZM440.662 121.142C439.657 121.142 438.858 120.876 438.267 120.344C437.735 119.812 437.469 119.191 437.469 118.482C437.469 117.772 437.735 117.151 438.267 116.619C438.858 116.087 439.657 115.821 440.662 115.821H470.994C472 115.821 472.768 116.087 473.3 116.619C473.892 117.151 474.187 117.772 474.187 118.482C474.187 119.191 473.892 119.812 473.3 120.344C472.768 120.876 472 121.142 470.994 121.142H440.662ZM486.072 121.142C485.067 121.142 484.269 120.876 483.677 120.344C483.145 119.812 482.879 119.191 482.879 118.482C482.879 117.772 483.145 117.151 483.677 116.619C484.269 116.087 485.067 115.821 486.072 115.821H505.052C506.057 115.821 506.826 116.087 507.358 116.619C507.949 117.151 508.245 117.772 508.245 118.482C508.245 119.191 507.949 119.812 507.358 120.344C506.826 120.876 506.057 121.142 505.052 121.142H486.072ZM440.662 109.79C439.657 109.79 438.858 109.524 438.267 108.992C437.735 108.459 437.469 107.839 437.469 107.129C437.469 106.42 437.735 105.799 438.267 105.267C438.858 104.734 439.657 104.468 440.662 104.468H459.642C460.647 104.468 461.416 104.734 461.948 105.267C462.539 105.799 462.835 106.42 462.835 107.129C462.835 107.839 462.539 108.459 461.948 108.992C461.416 109.524 460.647 109.79 459.642 109.79H440.662ZM486.072 109.79C485.067 109.79 484.269 109.524 483.677 108.992C483.145 108.459 482.879 107.839 482.879 107.129C482.879 106.42 483.145 105.799 483.677 105.267C484.269 104.734 485.067 104.468 486.072 104.468H505.052C506.057 104.468 506.826 104.734 507.358 105.267C507.949 105.799 508.245 106.42 508.245 107.129C508.245 107.839 507.949 108.459 507.358 108.992C506.826 109.524 506.057 109.79 505.052 109.79H486.072ZM554.187 177.905C553.182 177.905 552.384 177.639 551.792 177.107C551.26 176.575 550.994 175.954 550.994 175.244C550.994 174.535 551.26 173.914 551.792 173.382C552.384 172.85 553.182 172.584 554.187 172.584H573.167C574.172 172.584 574.941 172.85 575.473 173.382C576.064 173.914 576.36 174.535 576.36 175.244C576.36 175.954 576.064 176.575 575.473 177.107C574.941 177.639 574.172 177.905 573.167 177.905H554.187ZM554.187 166.552C553.182 166.552 552.384 166.286 551.792 165.754C551.26 165.222 550.994 164.601 550.994 163.892C550.994 163.182 551.26 162.561 551.792 162.029C552.384 161.497 553.182 161.231 554.187 161.231H573.167C574.172 161.231 574.941 161.497 575.473 162.029C576.064 162.561 576.36 163.182 576.36 163.892C576.36 164.601 576.064 165.222 575.473 165.754C574.941 166.286 574.172 166.552 573.167 166.552H554.187ZM554.187 155.2C553.182 155.2 552.384 154.934 551.792 154.402C551.26 153.87 550.994 153.249 550.994 152.539C550.994 151.83 551.26 151.209 551.792 150.677C552.384 150.145 553.182 149.878 554.187 149.878H573.167C574.172 149.878 574.941 150.145 575.473 150.677C576.064 151.209 576.36 151.83 576.36 152.539C576.36 153.249 576.064 153.87 575.473 154.402C574.941 154.934 574.172 155.2 573.167 155.2H554.187ZM542.835 143.847C541.829 143.847 541.031 143.581 540.44 143.049C539.908 142.517 539.642 141.896 539.642 141.187C539.642 140.477 539.908 139.856 540.44 139.324C541.031 138.792 541.829 138.526 542.835 138.526H584.52C585.525 138.526 586.294 138.792 586.826 139.324C587.417 139.856 587.713 140.477 587.713 141.187C587.713 141.896 587.417 142.517 586.826 143.049C586.294 143.581 585.525 143.847 584.52 143.847H542.835ZM531.482 132.495C530.477 132.495 529.679 132.229 529.087 131.697C528.555 131.165 528.289 130.544 528.289 129.834C528.289 129.125 528.555 128.504 529.087 127.972C529.679 127.439 530.477 127.173 531.482 127.173H550.462C551.467 127.173 552.236 127.439 552.768 127.972C553.359 128.504 553.655 129.125 553.655 129.834C553.655 130.544 553.359 131.165 552.768 131.697C552.236 132.229 551.467 132.495 550.462 132.495H531.482ZM576.892 132.495C575.887 132.495 575.089 132.229 574.498 131.697C573.965 131.165 573.699 130.544 573.699 129.834C573.699 129.125 573.965 128.504 574.498 127.972C575.089 127.439 575.887 127.173 576.892 127.173H595.872C596.877 127.173 597.646 127.439 598.178 127.972C598.77 128.504 599.065 129.125 599.065 129.834C599.065 130.544 598.77 131.165 598.178 131.697C597.646 132.229 596.877 132.495 595.872 132.495H576.892ZM531.482 121.142C530.477 121.142 529.679 120.876 529.087 120.344C528.555 119.812 528.289 119.191 528.289 118.482C528.289 117.772 528.555 117.151 529.087 116.619C529.679 116.087 530.477 115.821 531.482 115.821H550.462C551.467 115.821 552.236 116.087 552.768 116.619C553.359 117.151 553.655 117.772 553.655 118.482C553.655 119.191 553.359 119.812 552.768 120.344C552.236 120.876 551.467 121.142 550.462 121.142H531.482ZM576.892 121.142C575.887 121.142 575.089 120.876 574.498 120.344C573.965 119.812 573.699 119.191 573.699 118.482C573.699 117.772 573.965 117.151 574.498 116.619C575.089 116.087 575.887 115.821 576.892 115.821H595.872C596.877 115.821 597.646 116.087 598.178 116.619C598.77 117.151 599.065 117.772 599.065 118.482C599.065 119.191 598.77 119.812 598.178 120.344C597.646 120.876 596.877 121.142 595.872 121.142H576.892ZM531.482 109.79C530.477 109.79 529.679 109.524 529.087 108.992C528.555 108.459 528.289 107.839 528.289 107.129C528.289 106.42 528.555 105.799 529.087 105.267C529.679 104.734 530.477 104.468 531.482 104.468H550.462C551.467 104.468 552.236 104.734 552.768 105.267C553.359 105.799 553.655 106.42 553.655 107.129C553.655 107.839 553.359 108.459 552.768 108.992C552.236 109.524 551.467 109.79 550.462 109.79H531.482ZM576.892 109.79C575.887 109.79 575.089 109.524 574.498 108.992C573.965 108.459 573.699 107.839 573.699 107.129C573.699 106.42 573.965 105.799 574.498 105.267C575.089 104.734 575.887 104.468 576.892 104.468H595.872C596.877 104.468 597.646 104.734 598.178 105.267C598.77 105.799 599.065 106.42 599.065 107.129C599.065 107.839 598.77 108.459 598.178 108.992C597.646 109.524 596.877 109.79 595.872 109.79H576.892Z" fill="black"/>
</g>
<defs>
<clipPath id="clip0_1281_38">
<rect width="600" height="183" fill="white"/>
</clipPath>
</defs>
</svg>
