<svg width="600" height="183" viewBox="0 0 600 183" fill="none" xmlns="http://www.w3.org/2000/svg">
<g clip-path="url(#clip0_1282_43)">
<path d="M80.1719 161.941C78.1523 161.941 76.5485 161.407 75.3605 160.337C74.2913 159.268 73.7566 158.021 73.7566 156.595C73.7566 155.169 74.2913 153.922 75.3605 152.853C76.5485 151.784 78.1523 151.249 80.1719 151.249H118.307C120.327 151.249 121.871 151.784 122.94 152.853C124.128 153.922 124.722 155.169 124.722 156.595C124.722 158.021 124.128 159.268 122.94 160.337C121.871 161.407 120.327 161.941 118.307 161.941H80.1719ZM80.1719 139.131C78.1523 139.131 76.5485 138.597 75.3605 137.527C74.2913 136.458 73.7566 135.211 73.7566 133.785C73.7566 132.36 74.2913 131.112 75.3605 130.043C76.5485 128.974 78.1523 128.439 80.1719 128.439H118.307C120.327 128.439 121.871 128.974 122.94 130.043C124.128 131.112 124.722 132.36 124.722 133.785C124.722 135.211 124.128 136.458 122.94 137.527C121.871 138.597 120.327 139.131 118.307 139.131H80.1719ZM80.1719 116.321C78.1523 116.321 76.5485 115.787 75.3605 114.718C74.2913 113.648 73.7566 112.401 73.7566 110.975C73.7566 109.55 74.2913 108.302 75.3605 107.233C76.5485 106.164 78.1523 105.629 80.1719 105.629H118.307C120.327 105.629 121.871 106.164 122.94 107.233C124.128 108.302 124.722 109.55 124.722 110.975C124.722 112.401 124.128 113.648 122.94 114.718C121.871 115.787 120.327 116.321 118.307 116.321H80.1719ZM80.1719 93.5114C78.1523 93.5114 76.5485 92.9768 75.3605 91.9076C74.2913 90.8384 73.7566 89.591 73.7566 88.1654C73.7566 86.7398 74.2913 85.4923 75.3605 84.4231C76.5485 83.3539 78.1523 82.8193 80.1719 82.8193H118.307C120.327 82.8193 121.871 83.3539 122.94 84.4231C124.128 85.4923 124.722 86.7398 124.722 88.1654C124.722 89.591 124.128 90.8384 122.94 91.9076C121.871 92.9768 120.327 93.5114 118.307 93.5114H80.1719ZM80.1719 70.7016C78.1523 70.7016 76.5485 70.1669 75.3605 69.0977C74.2913 68.0285 73.7566 66.7811 73.7566 65.3555C73.7566 63.9299 74.2913 62.6824 75.3605 61.6132C76.5485 60.544 78.1523 60.0094 80.1719 60.0094H118.307C120.327 60.0094 121.871 60.544 122.94 61.6132C124.128 62.6824 124.722 63.9299 124.722 65.3555C124.722 66.7811 124.128 68.0285 122.94 69.0977C121.871 70.1669 120.327 70.7016 118.307 70.7016H80.1719ZM80.1719 47.8917C78.1523 47.8917 76.5485 47.3571 75.3605 46.2878C74.2913 45.2186 73.7566 43.9712 73.7566 42.5456C73.7566 41.12 74.2913 39.8726 75.3605 38.8033C76.5485 37.7341 78.1523 37.1995 80.1719 37.1995H118.307C120.327 37.1995 121.871 37.7341 122.94 38.8033C124.128 39.8726 124.722 41.12 124.722 42.5456C124.722 43.9712 124.128 45.2186 122.94 46.2878C121.871 47.3571 120.327 47.8917 118.307 47.8917H80.1719ZM34.5521 25.0818C32.5325 25.0818 30.9287 24.5472 29.7407 23.4779C28.6715 22.4087 28.1369 21.1613 28.1369 19.7357C28.1369 18.3101 28.6715 17.0627 29.7407 15.9934C30.9287 14.9242 32.5325 14.3896 34.5521 14.3896H163.927C165.947 14.3896 167.491 14.9242 168.56 15.9934C169.748 17.0627 170.342 18.3101 170.342 19.7357C170.342 21.1613 169.748 22.4087 168.56 23.4779C167.491 24.5472 165.947 25.0818 163.927 25.0818H34.5521ZM258.089 161.941C256.069 161.941 254.466 161.407 253.278 160.337C252.208 159.268 251.674 158.021 251.674 156.595C251.674 155.169 252.208 153.922 253.278 152.853C254.466 151.784 256.069 151.249 258.089 151.249H341.844C343.864 151.249 345.408 151.784 346.477 152.853C347.665 153.922 348.259 155.169 348.259 156.595C348.259 158.021 347.665 159.268 346.477 160.337C345.408 161.407 343.864 161.941 341.844 161.941H258.089ZM235.279 139.131C233.26 139.131 231.656 138.597 230.468 137.527C229.399 136.458 228.864 135.211 228.864 133.785C228.864 132.36 229.399 131.112 230.468 130.043C231.656 128.974 233.26 128.439 235.279 128.439H273.414C275.434 128.439 276.979 128.974 278.048 130.043C279.236 131.112 279.83 132.36 279.83 133.785C279.83 135.211 279.236 136.458 278.048 137.527C276.979 138.597 275.434 139.131 273.414 139.131H235.279ZM326.519 139.131C324.499 139.131 322.895 138.597 321.707 137.527C320.638 136.458 320.103 135.211 320.103 133.785C320.103 132.36 320.638 131.112 321.707 130.043C322.895 128.974 324.499 128.439 326.519 128.439H364.654C366.674 128.439 368.218 128.974 369.287 130.043C370.475 131.112 371.069 132.36 371.069 133.785C371.069 135.211 370.475 136.458 369.287 137.527C368.218 138.597 366.674 139.131 364.654 139.131H326.519ZM235.279 116.321C233.26 116.321 231.656 115.787 230.468 114.718C229.399 113.648 228.864 112.401 228.864 110.975C228.864 109.55 229.399 108.302 230.468 107.233C231.656 106.164 233.26 105.629 235.279 105.629H273.414C275.434 105.629 276.979 106.164 278.048 107.233C279.236 108.302 279.83 109.55 279.83 110.975C279.83 112.401 279.236 113.648 278.048 114.718C276.979 115.787 275.434 116.321 273.414 116.321H235.279ZM235.279 93.5114C233.26 93.5114 231.656 92.9768 230.468 91.9076C229.399 90.8384 228.864 89.591 228.864 88.1654C228.864 86.7398 229.399 85.4923 230.468 84.4231C231.656 83.3539 233.26 82.8193 235.279 82.8193H273.414C275.434 82.8193 276.979 83.3539 278.048 84.4231C279.236 85.4923 279.83 86.7398 279.83 88.1654C279.83 89.591 279.236 90.8384 278.048 91.9076C276.979 92.9768 275.434 93.5114 273.414 93.5114H235.279ZM235.279 70.7016C233.26 70.7016 231.656 70.1669 230.468 69.0977C229.399 68.0285 228.864 66.7811 228.864 65.3555C228.864 63.9299 229.399 62.6824 230.468 61.6132C231.656 60.544 233.26 60.0094 235.279 60.0094H273.414C275.434 60.0094 276.979 60.544 278.048 61.6132C279.236 62.6824 279.83 63.9299 279.83 65.3555C279.83 66.7811 279.236 68.0285 278.048 69.0977C276.979 70.1669 275.434 70.7016 273.414 70.7016H235.279ZM235.279 47.8917C233.26 47.8917 231.656 47.3571 230.468 46.2878C229.399 45.2186 228.864 43.9712 228.864 42.5456C228.864 41.12 229.399 39.8726 230.468 38.8033C231.656 37.7341 233.26 37.1995 235.279 37.1995H273.414C275.434 37.1995 276.979 37.7341 278.048 38.8033C279.236 39.8726 279.83 41.12 279.83 42.5456C279.83 43.9712 279.236 45.2186 278.048 46.2878C276.979 47.3571 275.434 47.8917 273.414 47.8917H235.279ZM326.519 47.8917C324.499 47.8917 322.895 47.3571 321.707 46.2878C320.638 45.2186 320.103 43.9712 320.103 42.5456C320.103 41.12 320.638 39.8726 321.707 38.8033C322.895 37.7341 324.499 37.1995 326.519 37.1995H364.654C366.674 37.1995 368.218 37.7341 369.287 38.8033C370.475 39.8726 371.069 41.12 371.069 42.5456C371.069 43.9712 370.475 45.2186 369.287 46.2878C368.218 47.3571 366.674 47.8917 364.654 47.8917H326.519ZM258.089 25.0818C256.069 25.0818 254.466 24.5472 253.278 23.4779C252.208 22.4087 251.674 21.1613 251.674 19.7357C251.674 18.3101 252.208 17.0627 253.278 15.9934C254.466 14.9242 256.069 14.3896 258.089 14.3896H341.844C343.864 14.3896 345.408 14.9242 346.477 15.9934C347.665 17.0627 348.259 18.3101 348.259 19.7357C348.259 21.1613 347.665 22.4087 346.477 23.4779C345.408 24.5472 343.864 25.0818 341.844 25.0818H258.089ZM458.816 161.941C456.797 161.941 455.193 161.407 454.005 160.337C452.935 159.268 452.401 158.021 452.401 156.595C452.401 155.169 452.935 153.922 454.005 152.853C455.193 151.784 456.797 151.249 458.816 151.249H542.571C544.591 151.249 546.135 151.784 547.204 152.853C548.392 153.922 548.986 155.169 548.986 156.595C548.986 158.021 548.392 159.268 547.204 160.337C546.135 161.407 544.591 161.941 542.571 161.941H458.816ZM436.006 139.131C433.987 139.131 432.383 138.597 431.195 137.527C430.126 136.458 429.591 135.211 429.591 133.785C429.591 132.36 430.126 131.112 431.195 130.043C432.383 128.974 433.987 128.439 436.006 128.439H474.142C476.161 128.439 477.706 128.974 478.775 130.043C479.963 131.112 480.557 132.36 480.557 133.785C480.557 135.211 479.963 136.458 478.775 137.527C477.706 138.597 476.161 139.131 474.142 139.131H436.006ZM527.246 139.131C525.226 139.131 523.622 138.597 522.434 137.527C521.365 136.458 520.831 135.211 520.831 133.785C520.831 132.36 521.365 131.112 522.434 130.043C523.622 128.974 525.226 128.439 527.246 128.439H565.381C567.401 128.439 568.945 128.974 570.014 130.043C571.202 131.112 571.796 132.36 571.796 133.785C571.796 135.211 571.202 136.458 570.014 137.527C568.945 138.597 567.401 139.131 565.381 139.131H527.246ZM436.006 116.321C433.987 116.321 432.383 115.787 431.195 114.718C430.126 113.648 429.591 112.401 429.591 110.975C429.591 109.55 430.126 108.302 431.195 107.233C432.383 106.164 433.987 105.629 436.006 105.629H474.142C476.161 105.629 477.706 106.164 478.775 107.233C479.963 108.302 480.557 109.55 480.557 110.975C480.557 112.401 479.963 113.648 478.775 114.718C477.706 115.787 476.161 116.321 474.142 116.321H436.006ZM436.006 93.5114C433.987 93.5114 432.383 92.9768 431.195 91.9076C430.126 90.8384 429.591 89.591 429.591 88.1654C429.591 86.7398 430.126 85.4923 431.195 84.4231C432.383 83.3539 433.987 82.8193 436.006 82.8193H474.142C476.161 82.8193 477.706 83.3539 478.775 84.4231C479.963 85.4923 480.557 86.7398 480.557 88.1654C480.557 89.591 479.963 90.8384 478.775 91.9076C477.706 92.9768 476.161 93.5114 474.142 93.5114H436.006ZM436.006 70.7016C433.987 70.7016 432.383 70.1669 431.195 69.0977C430.126 68.0285 429.591 66.7811 429.591 65.3555C429.591 63.9299 430.126 62.6824 431.195 61.6132C432.383 60.544 433.987 60.0094 436.006 60.0094H474.142C476.161 60.0094 477.706 60.544 478.775 61.6132C479.963 62.6824 480.557 63.9299 480.557 65.3555C480.557 66.7811 479.963 68.0285 478.775 69.0977C477.706 70.1669 476.161 70.7016 474.142 70.7016H436.006ZM436.006 47.8917C433.987 47.8917 432.383 47.3571 431.195 46.2878C430.126 45.2186 429.591 43.9712 429.591 42.5456C429.591 41.12 430.126 39.8726 431.195 38.8033C432.383 37.7341 433.987 37.1995 436.006 37.1995H474.142C476.161 37.1995 477.706 37.7341 478.775 38.8033C479.963 39.8726 480.557 41.12 480.557 42.5456C480.557 43.9712 479.963 45.2186 478.775 46.2878C477.706 47.3571 476.161 47.8917 474.142 47.8917H436.006ZM527.246 47.8917C525.226 47.8917 523.622 47.3571 522.434 46.2878C521.365 45.2186 520.831 43.9712 520.831 42.5456C520.831 41.12 521.365 39.8726 522.434 38.8033C523.622 37.7341 525.226 37.1995 527.246 37.1995H565.381C567.401 37.1995 568.945 37.7341 570.014 38.8033C571.202 39.8726 571.796 41.12 571.796 42.5456C571.796 43.9712 571.202 45.2186 570.014 46.2878C568.945 47.3571 567.401 47.8917 565.381 47.8917H527.246ZM458.816 25.0818C456.797 25.0818 455.193 24.5472 454.005 23.4779C452.935 22.4087 452.401 21.1613 452.401 19.7357C452.401 18.3101 452.935 17.0627 454.005 15.9934C455.193 14.9242 456.797 14.3896 458.816 14.3896H542.571C544.591 14.3896 546.135 14.9242 547.204 15.9934C548.392 17.0627 548.986 18.3101 548.986 19.7357C548.986 21.1613 548.392 22.4087 547.204 23.4779C546.135 24.5472 544.591 25.0818 542.571 25.0818H458.816Z" fill="black"/>
</g>
<defs>
<clipPath id="clip0_1282_43">
<rect width="600" height="183" fill="white"/>
</clipPath>
</defs>
</svg>
